<svg width="54" height="54" viewBox="0 0 54 54" xmlns="http://www.w3.org/2000/svg" xmlns:xlink="http://www.w3.org/1999/xlink"><svg id="checkblock-activied" width="18" height="18" viewBox="-1 -1 18 18"><style>.aast0,.aast1{fill-rule:evenodd;clip-rule:evenodd;fill:#00a4ff}.aast1{fill:#fff}</style><path id="aaXMLID_2_" class="aast0" d="M16 1v15H0L16 1z"/><g id="aaXMLID_4_"><g id="aaXMLID_77_"><path id="aaXMLID_78_" class="aast1" d="M8 11v1h1v-1H8zm1 1v1h1v-1H9zm1 2h1v-1h-1v1zm1-1h1v-1h-1v1zm1-1h1v-1h-1v1zm1-1h1v-1h-1v1zm1-2v1h1V9h-1z"/></g></g></svg><svg width="18" height="17" viewBox="-1 -1 18 17" id="gou-b" x="18"><path fill-rule="evenodd" clip-rule="evenodd" fill="#00a4ff" d="M16 0v15H0L16 0z"/><path fill-rule="evenodd" clip-rule="evenodd" fill="#FFF" d="M14.8 8.7l-4.1 4.1-.7.7-.7-.7L7 10.5l.7-.7 2.3 2.3L14.1 8l.7.7z"/></svg><svg width="18" height="18" viewBox="-1 -1 18 18" id="hyp" y="18"><path fill-rule="evenodd" clip-rule="evenodd" fill="#666" d="M15.5 8h-7l3.2-2.7C10.8 3.9 9.3 3 7.5 3c-2.8 0-5 2.2-5 5s2.2 5 5 5c1.6 0 3.1-.8 4-2h2.3c-1.1 2.4-3.5 4-6.3 4-3.9 0-7-3.1-7-7s3.1-7 7-7c2.4 0 4.4 1.2 5.7 3l2.3-2v6z"/></svg><svg width="18" height="18" viewBox="-1 -1 18 18" id="hyp2" x="18" y="18"><path fill="#00a4ff" d="M15.5 8h-7l3.2-2.7C10.8 3.9 9.3 3 7.5 3c-2.8 0-5 2.2-5 5s2.2 5 5 5c1.6 0 3.1-.8 4-2h2.3c-1.1 2.4-3.5 4-6.3 4-3.9 0-7-3.1-7-7s3.1-7 7-7c2.4 0 4.4 1.2 5.7 3l2.3-2v6z"/></svg><svg width="18" height="18" viewBox="0 0 18 18" id="icon-search" x="36"><path fill="#888" d="M15.7 14.8l-2.5-2.5c1-1.1 1.7-2.7 1.7-4.3 0-3.6-2.9-6.5-6.5-6.5C4.9 1.5 2 4.4 2 8s2.9 6.4 6.4 6.4c1.2 0 2.3-.3 3.2-.9l2.7 2.7c.4.4 1 .4 1.4 0 .4-.4.4-1 0-1.4zm-7.3-2.4C6 12.4 4 10.4 4 8s2-4.5 4.4-4.5c2.5 0 4.5 2 4.5 4.5s-2 4.4-4.5 4.4z"/></svg><svg width="18" height="18" viewBox="-1 -1 18 18" id="icon-tips" x="36" y="18"><g fill="#444"><path d="M8 1a7 7 0 1 0 0 14A7 7 0 0 0 8 1zm0 13c-3.308 0-6-2.692-6-6s2.692-6 6-6 6 2.692 6 6-2.692 6-6 6z"/><path d="M7.91 10.652a.844.844 0 0 0-.624.24c-.168.152-.252.356-.252.612 0 .24.084.444.252.612s.376.252.624.252c.24 0 .448-.08.624-.24a.853.853 0 0 0 .264-.624c0-.256-.084-.46-.252-.612-.16-.16-.372-.24-.636-.24zm.216-7.02c-.888 0-1.584.256-2.088.768-.504.504-.756 1.192-.756 2.064h1.26c0-.528.108-.936.324-1.224.24-.344.632-.516 1.176-.516.44 0 .78.12 1.02.36.232.248.348.576.348.984 0 .296-.112.588-.336.876l-.204.228c-.752.672-1.204 1.168-1.356 1.488-.16.296-.24.676-.24 1.14v.204h1.284V9.8c0-.296.064-.56.192-.792.112-.232.28-.44.504-.624.568-.496.904-.808 1.008-.936.304-.392.456-.88.456-1.464 0-.728-.24-1.3-.72-1.716-.472-.424-1.096-.636-1.872-.636z"/></g></svg><svg width="18" height="18" viewBox="-1 -1 18 18" id="yfwq" y="36"><path fill="#586376" d="M15.5 4L8 0 .5 4v7l4.2 2.3c.1-.3.3-.6.5-.9l-3.7-2V5.7L8 9.2l6.5-3.5v4.7l-5.5 3c-.3-.3-.6-.4-1-.4-.8 0-1.5.7-1.5 1.5S7.2 16 8 16s1.5-.7 1.5-1.5v-.3l6-3.2V4zM8 8.1L1.5 4.6 8 1.1l6.5 3.5L8 8.1z"/></svg></svg>